<svg xmlns="http://www.w3.org/2000/svg" xmlns:svg="http://www.w3.org/2000/svg" xmlns:xlink="http://www.w3.org/1999/xlink" id="eec7d136-f112-46af-a3cf-bf91a5c75666" width="59.994" height="60" data-name="Layer 1" version="1.1" viewBox="0 0 59.994 60"><metadata id="metadata71"/><defs id="defs38"><linearGradient id="b5c6b104-454d-4729-acd6-907263c2d466" x1="57.186" x2="70.387" y1="740.064" y2="740.064" gradientTransform="matrix(1,0,0,-1,0,770)" gradientUnits="userSpaceOnUse"><stop id="stop2" offset="0" stop-color="#005ba1"/><stop id="stop4" offset=".068" stop-color="#0060a9"/><stop id="stop6" offset=".356" stop-color="#0071c8"/><stop id="stop8" offset=".517" stop-color="#0078d4"/><stop id="stop10" offset=".642" stop-color="#0074cd"/><stop id="stop12" offset=".82" stop-color="#006abb"/><stop id="stop14" offset="1" stop-color="#005ba1"/></linearGradient><linearGradient id="a7ff9d6f-dfc1-44bf-b13b-162305f1fa8a" x1="52.797" x2="52.797" y1="704.808" y2="742.844" gradientTransform="matrix(1,0,0,-1,0,770)" gradientUnits="userSpaceOnUse"><stop id="stop17" offset="0" stop-color="#198ab3"/><stop id="stop19" offset=".097" stop-color="#209ec5"/><stop id="stop21" offset=".242" stop-color="#28b6da"/><stop id="stop23" offset=".396" stop-color="#2ec7e9"/><stop id="stop25" offset=".565" stop-color="#31d1f2"/><stop id="stop27" offset=".775" stop-color="#32d4f5"/></linearGradient><linearGradient id="bc37103c-430d-46e7-aa83-30a9235b7b74" x1="36.847" x2="59.476" y1="702.948" y2="702.948" xlink:href="#b5c6b104-454d-4729-acd6-907263c2d466"/><radialGradient id="e36b5364-8f7a-422d-a36a-9a21681809ae" cx="48.79" cy="702.229" r="12.478" gradientTransform="matrix(1,0,0,-1,0,770)" gradientUnits="userSpaceOnUse"><stop id="stop31" offset="0" stop-color="#f2f2f2"/><stop id="stop33" offset=".58" stop-color="#eee"/><stop id="stop35" offset="1" stop-color="#e6e6e6"/></radialGradient><linearGradient id="linearGradient4581" x1="57.186" x2="70.387" y1="740.064" y2="740.064" gradientTransform="matrix(1,0,0,-1,0,770)" gradientUnits="userSpaceOnUse" xlink:href="#b5c6b104-454d-4729-acd6-907263c2d466"/></defs><title id="title40">SQL_Database_Edge_100x</title><g id="g66" transform="translate(-20.002819,-20)"><path style="opacity:.4;isolation:isolate;fill:#fff" id="path42" d="m 57.135,30.379 c 5.493,1.494 6.882,2.438 11.833,6.466 -0.037,-0.064 -0.078,-0.12 -0.12,-0.189 -0.23,-0.369 -0.48,-0.72 -0.731,-1.062 -0.094,-0.12 -0.186,-0.253 -0.285,-0.373 -0.223,-0.275 -0.463,-0.527 -0.7,-0.78 a 13.488,13.488 0 0 0 -1.182,-1.1 l -0.012,-0.01 a 13.364,13.364 0 0 0 -4.393,-2.346 l -0.2,-0.066 q -0.507,-0.15 -1.032,-0.26 c -0.273,-0.055 -0.552,-0.1 -0.832,-0.138 -0.215,-0.031 -0.428,-0.073 -0.645,-0.094 q -0.767,-0.068 -1.537,-0.059 z"/><path id="path44" d="m 63.786,24.777 c -3.642,0 -6.6,-1.069 -6.6,-2.389 V 35.1 c 0,1.308 2.9,2.371 6.506,2.388 h 0.094 c 3.643,0 6.6,-1.068 6.6,-2.388 V 22.388 c -0.009,1.32 -2.962,2.389 -6.6,2.389 z" style="fill:url(#linearGradient4581)"/><path id="path46" d="m 70.377,22.388 c 0,1.32 -2.953,2.389 -6.6,2.389 -3.647,0 -6.591,-1.069 -6.591,-2.389 0,-1.32 2.954,-2.388 6.6,-2.388 3.646,0 6.6,1.069 6.6,2.388" style="fill:#e8e8e8"/><path id="path48" d="m 68.837,22.2 c 0,0.84 -2.263,1.519 -5.055,1.519 -2.792,0 -5.056,-0.68 -5.056,-1.519 0,-0.839 2.263,-1.518 5.06,-1.518 2.797,0 5.056,0.679 5.056,1.518" style="fill:#50e6ff"/><path id="path50" d="m 63.786,22.545 a 12.247,12.247 0 0 0 -4,0.576 13.658,13.658 0 0 0 8,0 12.246,12.246 0 0 0 -4,-0.576 z" style="fill:#198ab3"/><path id="path52" d="M 79.627,53.279 A 12.057,12.057 0 0 0 69.163,41.69 C 69.083,33.65 62.109,27.158 53.512,27.158 a 15.592,15.592 0 0 0 -14.9,10.16 C 31.441,38.41 25.967,44.19 25.967,51.16 c 0,7.75 6.764,14.032 15.108,14.032 0.449,0 0.893,-0.023 1.332,-0.058 h 24.467 a 2.434,2.434 0 0 0 0.646,-0.1 C 74.257,64.761 79.627,59.6 79.627,53.279 Z" style="fill:url(#a7ff9d6f-dfc1-44bf-b13b-162305f1fa8a)"/><path id="path54" d="m 78.463,29.993 c -1.653,-2.16 -4.49,-3.21 -8.086,-3.254 v 3.6 c 2.52,0.042 4.355,0.68 5.239,1.839 C 78.651,36.156 73.137,49.2 57.263,61.4 41.389,73.6 27.411,75.561 24.378,71.581 c -1.719,-2.254 -0.653,-7.43 3.445,-13.7 a 13.266,13.266 0 0 1 -1.571,-4.006 c -5.86,8.04 -7.976,15.626 -4.721,19.9 5.217,6.841 22.191,2.587 37.913,-9.5 C 75.166,52.188 83.679,36.833 78.463,29.993 Z" style="fill:#0072c6"/><path id="path56" d="m 48.161,58.2 c -6.247,0 -11.314,-1.835 -11.314,-4.1 v 21.8 c 0,2.244 4.983,4.067 11.16,4.1 h 0.155 c 6.249,0 11.314,-1.834 11.314,-4.1 V 54.1 c -10e-4,2.268 -5.067,4.1 -11.315,4.1 z" style="fill:url(#bc37103c-430d-46e7-aa83-30a9235b7b74)"/><path id="path58" d="m 59.475,54.105 c 0,2.263 -5.066,4.1 -11.314,4.1 -6.248,0 -11.314,-1.835 -11.314,-4.1 0,-2.265 5.067,-4.1 11.314,-4.1 6.247,0 11.314,1.835 11.314,4.1" style="fill:#e8e8e8"/><path id="path60" d="m 56.834,53.773 c 0,1.441 -3.883,2.606 -8.673,2.606 -4.79,0 -8.673,-1.167 -8.673,-2.606 0,-1.439 3.884,-2.605 8.673,-2.605 4.789,0 8.673,1.167 8.673,2.605" style="fill:#50e6ff"/><path id="path62" d="m 48.161,54.373 a 20.975,20.975 0 0 0 -6.87,0.989 20.252,20.252 0 0 0 6.87,1.017 20.262,20.262 0 0 0 6.871,-1.017 20.981,20.981 0 0 0 -6.871,-0.989 z" style="fill:#198ab3"/><path id="path64" d="m 55.038,69.236 v -5.96 H 53.4 v 7.292 h 4.343 V 69.236 Z M 42.452,66.3 a 3.63,3.63 0 0 1 -0.907,-0.547 0.77,0.77 0 0 1 -0.221,-0.567 0.633,0.633 0 0 1 0.274,-0.536 1.245,1.245 0 0 1 0.748,-0.2 2.887,2.887 0 0 1 1.68,0.509 v -1.52 a 4.809,4.809 0 0 0 -1.77,-0.281 2.969,2.969 0 0 0 -1.934,0.593 1.932,1.932 0 0 0 -0.722,1.569 2.394,2.394 0 0 0 1.668,2.135 4.887,4.887 0 0 1 1.086,0.631 0.751,0.751 0 0 1 0.268,0.575 0.633,0.633 0 0 1 -0.279,0.539 1.312,1.312 0 0 1 -0.786,0.2 2.917,2.917 0 0 1 -1.927,-0.743 v 1.627 a 3.968,3.968 0 0 0 1.888,0.407 3.371,3.371 0 0 0 2.079,-0.569 1.9,1.9 0 0 0 0.753,-1.608 1.832,1.832 0 0 0 -0.433,-1.241 4.491,4.491 0 0 0 -1.465,-0.973 z m 9.153,2.8 a 4.517,4.517 0 0 0 0.145,-4.17 3.154,3.154 0 0 0 -1.236,-1.32 3.523,3.523 0 0 0 -1.8,-0.464 3.786,3.786 0 0 0 -1.913,0.48 3.276,3.276 0 0 0 -1.296,1.374 4.319,4.319 0 0 0 -0.46,2.021 4.03,4.03 0 0 0 0.424,1.854 3.222,3.222 0 0 0 1.2,1.309 3.533,3.533 0 0 0 1.752,0.514 l 1.511,1.694 h 2.135 L 49.953,70.434 A 3.119,3.119 0 0 0 51.605,69.1 Z m -1.643,-0.447 a 1.639,1.639 0 0 1 -1.347,0.618 1.617,1.617 0 0 1 -1.337,-0.638 3.136,3.136 0 0 1 0.009,-3.425 1.669,1.669 0 0 1 1.37,-0.646 1.561,1.561 0 0 1 1.32,0.645 2.864,2.864 0 0 1 0.48,1.752 2.618,2.618 0 0 1 -0.495,1.698 z" style="fill:url(#e36b5364-8f7a-422d-a36a-9a21681809ae)"/></g></svg>