<svg xmlns="http://www.w3.org/2000/svg" xmlns:xlink="http://www.w3.org/1999/xlink" id="Layer_1" x="0" y="0" version="1.1" viewBox="0 0 16 16" xml:space="preserve" style="enable-background:new 0 0 16 16"><style type="text/css">.st0{fill:#c5c5c5}.st1{fill:none;stroke:#c5c5c5;stroke-miterlimit:10}</style><g id="ff21850e-cc3c-49a5-89aa-1e729237460d"><circle cx="1.5" cy="10.5" r="1.5" class="st0"/><circle cx="9.5" cy="10.5" r="1.5" class="st0"/><circle cx="5.4" cy="6.5" r="1.5" class="st0"/><path d="M14.5,4C14.8,4,15,4.2,15,4.5S14.8,5,14.5,5S14,4.8,14,4.5S14.2,4,14.5,4 M14.5,3C13.7,3,13,3.7,13,4.5 S13.7,6,14.5,6S16,5.3,16,4.5S15.3,3,14.5,3z" class="st0"/><line x1="9.5" x2="14.3" y1="10.5" y2="5" class="st1"/><line x1="1.5" x2="5.4" y1="10.5" y2="6" class="st1"/><line x1="9.3" x2="5.4" y1="10.5" y2="6" class="st1"/></g></svg>